<svg data-v-0dd9719b="" version="1.0" xmlns="http://www.w3.org/2000/svg" xmlns:xlink="http://www.w3.org/1999/xlink" width="100%" height="100%" viewBox="0 0 340.000000 250.000000" preserveAspectRatio="xMidYMid meet" color-interpolation-filters="sRGB" style="margin: auto;"> <rect data-v-0dd9719b="" x="0" y="0" width="100%" height="100%" fill="#fff" fill-opacity="1" class="background"></rect> <rect data-v-0dd9719b="" x="0" y="0" width="100%" height="100%" fill="url(#watermark)" fill-opacity="1" class="watermarklayer"></rect> <g data-v-0dd9719b="" fill="#13ae67" class="icon-text-wrapper icon-svg-group iconsvg" transform="translate(49.13500213623047,96.50874519348145)"><g class="iconsvg-imagesvg" transform="translate(0,9.215505599975586)"><g><rect fill="#13ae67" fill-opacity="0" stroke-width="2" x="0" y="0" width="60" height="38.55149194273819" class="image-rect"></rect> <svg x="0" y="0" width="60" height="38.55149194273819" filtersec="colorsb272854959" class="image-svg-svg primary" style="overflow: visible;"><svg xmlns="http://www.w3.org/2000/svg" viewBox="0 0 42.79999923706055 27.5"><g style="isolation:isolate"><g><g><path d="M26.6 23.9l1.3 2.1-9.1-.9v-.2zM24.3 5.1l2.1-3.6-6.6-.5 2.5 4.2zM10.6.4L5.5 0v5.7l8.5-.3zm26.7 4.3v5.2l2.7.2V2.5l-5.3-.4-1.8 2.8zm-.1 22.2l2.8.3V25l-4.2-.3z" fill="#13ae67" style="mix-blend-mode:multiply"></path><path fill="#42bdd8" style="mix-blend-mode:multiply" d="M5.5 23.8V5.7L0 5.9v21.6l9.6-1.3 1.2-1.9-5.3-.5z"></path><path fill="#13ae67" style="mix-blend-mode:multiply" d="M24.3 5.1l-2 .1 1 1.6 1-1.7zM10.8 24.3l7.8-11.8L14 5.4l-8.5.3v18.1l5.3.5zM32.9 4.9L30 9.3l7.3.6V4.7l-4.4.2zM18.9 24.9l7.7-1-3.6-6-4.1 7z"></path><path d="M23.3 6.8l-1-1.6h2zM10.8 24.3l7.8-11.8L14 5.4l-8.5.3v18.1zM32.9 4.9L30 9.3l7.3.6V4.7zm-14 20l7.7-1-3.6-6z" fill="#42bdd8" style="mix-blend-mode:multiply"></path><path fill="#f39800" style="mix-blend-mode:multiply" d="M42.8 10.3l-2.8-.2V25l2.8.3v-15z"></path><path fill="#13ae67" style="mix-blend-mode:multiply" d="M37.3 9.9v12.6l-2.7.4 1.2 1.8 4.2.3V10.1l-2.7-.2z"></path><path fill="#567039" d="M37.3 9.9v12.6l-2.7.4 1.2 1.8 4.2.3V10.1l-2.7-.2z"></path><path fill="#13ae67" style="mix-blend-mode:multiply" d="M27.9 12.6l6.7 10.3 2.7-.4V9.9L30 9.3l-2.1 3.3z"></path><path fill="#42bdd8" style="mix-blend-mode:multiply" d="M27.9 12.6l6.7 10.3 2.7-.4V9.9L30 9.3l-2.1 3.3z"></path><path fill="#1e693c" d="M27.9 12.6l6.7 10.3 2.7-.4V9.9L30 9.3l-2.1 3.3z"></path></g></g></g></svg></svg> <!----></g></g> <g transform="translate(67,0)"><g data-gra="path-name" fill-rule="" class="tp-name iconsvg-namesvg" transform="translate(0,0)"><g transform="scale(1)"><g><path d="M41.85-34.92L26.68-34.92C26.5-35.59 26.23-36.27 26.05-36.81L17.41-36.81 18.13-34.92 2.56-34.92 2.56-29.92 41.85-29.92ZM42.88-0.99C39.96-1.4 37.57-1.71 35.46-2.21 36.9-2.97 38.43-3.73 39.46-4.32L37.21-6.84 41.85-6.84 41.85-10.75 33.12-10.75 33.12-12.01 39.69-12.01 39.69-15.48 33.12-15.48 33.12-16.7 40.5-16.7 40.5-20.38 33.12-20.38 33.12-22.09 39.6-22.09 39.6-28.48 23.36-28.48 23.36-22.09 25.83-22.09 25.83-20.38 18.63-20.38 18.63-22.09 21.2-22.09 21.2-28.48 4.86-28.48 4.86-22.09 11.38-22.09 11.38-20.38 3.96-20.38 3.96-16.7 11.38-16.7 11.38-15.48 4.72-15.48 4.72-12.01 11.38-12.01 11.38-10.75 2.56-10.75 2.56-6.84 15.79-6.84C11.97-5.54 7.33-4.59 1.35-3.82L3.38 1.57C6.25 0.85 8.91 0.09 11.43-0.77 11.29 0.45 10.75 1.17 9.18 1.84L10.53 5.22C12.11 4.91 13.81 4.63 16.11 4.41 18.36 4.18 23.13 3.82 25.88 3.46L25.88-0.09C29.7 2.21 34.2 3.65 39.78 4.5ZM10.89-26.05L15.16-26.05 15.16-24.3 10.89-24.3ZM29.43-26.05L33.7-26.05 33.7-24.3 29.43-24.3ZM18.63-16.7L25.83-16.7 25.83-15.48 18.63-15.48ZM18.63-12.01L25.83-12.01 25.83-10.75 18.63-10.75ZM29.2-4.18C27.77-4.91 26.5-5.71 25.24-6.79 25.29-6.79 25.29-6.84 25.33-6.84L33.8-6.84C32.17-5.8 30.46-4.86 29.2-4.18ZM18.4-3.33L20.47-4.27C21.51-3.24 22.59-2.34 23.71-1.48 21.78-1.26 19.62-0.99 18.4-0.81ZM63.72-28.21L63.72-35.55 47.83-35.55 47.83 5.17 54.13 5.17 54.13-6.21 55.84 0.49 57.91 0.27C62.32-0.22 64.03-1.62 64.03-7.56 64.03-11.12 63.09-14.13 60.93-18.81ZM65.02-35.01L65.02 4.37 86 4.37 86-35.01ZM57.33-10.21C57.33-7.83 56.83-7.38 55.39-7.25L54.13-7.11 54.13-28.66 57.38-28.66 54.99-17.46C56.74-14.22 57.28-12.24 57.33-10.21ZM78.84-27.27L78.84-19.35 72-19.35 72-27.27ZM72-3.19L72-11.97 78.84-11.97 78.84-3.19ZM122.26-17.37L122.26-21.51 116.14-21.69C116.68-22.77 117.22-23.85 117.72-25.06L124.88-25.06C124.29-23.04 123.16-18.5 122.44-16.7L128.02-14.8C129.06-17.68 129.91-21.38 130.95-24.97L130.95-31.99 120.1-31.99 121-36 114.07-36.72C113.31-32.27 112.09-28.44 109.98-24.52L100.84-24.52 100.84-27.81C103.86-28.3 108.27-28.98 111.19-29.7L108.81-36.63C104.63-35.41 99.31-34.6 94.05-34.2L94.05-20.02C94.05-8.23 92.66-4.32 89.59 1.62L96.03 5.08C98.55-0.18 99.76-4.27 99.99-17.19L102.64-17.19 102.64 4.46 108.72 4.46 108.72 1.44 111.51 5.08C115.16 1.84 117.81-1.67 119.56-5.4 121.41-1.62 124.11 1.89 127.48 5L132.62-0.94C126.31-6.03 122.85-11.43 122.26-16.88ZM108.72-17.19L110.07-17.19 110.07-18.63 112.5-15.52C113.71-17.28 114.7-18.99 115.74-20.93L115.74-17.86C115.74-12.06 113.58-7.02 108.72-2.7ZM174.06-28.35L165.87-28.35C167.31-30.38 168.97-32.85 169.92-34.42L162.63-36.81C161.32-34.29 159.03-30.73 157.36-28.35L150.48-28.35 153.49-30.02C152.37-31.99 150.43-34.92 149.04-36.81L142.2-33.7C143.23-32.31 144.49-30.29 145.57-28.35L137.52-28.35 137.52-21.15 174.06-21.15ZM171.18-8.96L171.18-15.66 140.4-15.66 140.4-8.96ZM135.49-3.06L135.49 4.05 176.08 4.05 176.08-3.06Z" transform="translate(-1.350000023841858, 36.810001373291016)"></path></g> <!----> <!----> <!----> <!----> <!----> <!----> <!----></g></g> <g data-gra="path-slogan" fill-rule="" class="tp-slogan iconsvg-slogansvg" fill="#13ae67" transform="translate(29.119998931884766,48.03000259399414)"><!----> <!----> <g transform="scale(1, 1)"><g transform="scale(1)"><path d="M7.64-8.58L4.73-4.41L7.78 0L6.33 0L3.98-3.52L1.64 0L0.23 0L3.33-4.41L0.42-8.58L1.88-8.58L4.03-5.30L6.23-8.58L7.64-8.58ZM9.05-8.58L10.22-8.58L10.22 0L9.05 0L9.05-8.58ZM17.86 0L17.02-2.48L13.55-2.48L12.66 0L11.48 0L14.72-8.58L16.03-8.58L19.13 0L17.86 0ZM15.28-7.31L13.92-3.52L16.59-3.52L15.33-7.31L15.28-7.31ZM21.56-8.58L25.88-1.64L25.88-8.58L27-8.58L27 0L25.69 0L21.33-6.94L21.28-6.94L21.28 0L20.16 0L20.16-8.58L21.56-8.58ZM35.20-3.61L32.58-3.61L32.58-4.59L36.33-4.59L36.33 0L35.58 0L35.30-1.08Q34.31 0.09 32.48 0.14L32.48 0.14Q30.75 0.14 29.81-0.75L29.81-0.75Q28.41-2.06 28.45-4.36L28.45-4.36Q28.78-8.63 32.53-8.81L32.53-8.81Q35.72-8.63 36.19-6L36.19-6L35.06-6Q34.59-7.78 32.48-7.83L32.48-7.83Q29.81-7.64 29.67-4.31L29.67-4.31Q29.67-0.75 32.53-0.75L32.53-0.75Q33.56-0.75 34.31-1.31L34.31-1.31Q35.25-2.06 35.20-3.61L35.20-3.61ZM45.05-8.58L41.81-3.47L41.81 0L40.64 0L40.64-3.47L37.41-8.58L38.77-8.58L41.20-4.45L43.69-8.58L45.05-8.58ZM51.75 0L50.91-2.48L47.44-2.48L46.55 0L45.38 0L48.61-8.58L49.92-8.58L53.02 0L51.75 0ZM49.17-7.31L47.81-3.52L50.48-3.52L49.22-7.31L49.17-7.31ZM55.45-8.58L59.77-1.64L59.77-8.58L60.89-8.58L60.89 0L59.58 0L55.22-6.94L55.17-6.94L55.17 0L54.05 0L54.05-8.58L55.45-8.58ZM69.09-3.61L66.47-3.61L66.47-4.59L70.22-4.59L70.22 0L69.47 0L69.19-1.08Q68.20 0.09 66.38 0.14L66.38 0.14Q64.64 0.14 63.70-0.75L63.70-0.75Q62.30-2.06 62.34-4.36L62.34-4.36Q62.67-8.63 66.42-8.81L66.42-8.81Q69.61-8.63 70.08-6L70.08-6L68.95-6Q68.48-7.78 66.38-7.83L66.38-7.83Q63.70-7.64 63.56-4.31L63.56-4.31Q63.56-0.75 66.42-0.75L66.42-0.75Q67.45-0.75 68.20-1.31L68.20-1.31Q69.14-2.06 69.09-3.61L69.09-3.61ZM82.08-8.58L79.17-4.41L82.22 0L80.77 0L78.42-3.52L76.08 0L74.67 0L77.77-4.41L74.86-8.58L76.31-8.58L78.47-5.30L80.67-8.58L82.08-8.58ZM83.48-8.58L84.66-8.58L84.66 0L83.48 0L83.48-8.58ZM88.03-8.58L92.34-1.64L92.34-8.58L93.47-8.58L93.47 0L92.16 0L87.80-6.94L87.75-6.94L87.75 0L86.63 0L86.63-8.58L88.03-8.58ZM95.25-8.58L96.42-8.58L96.42-1.03L100.78-1.03L100.78 0L95.25 0L95.25-8.58ZM107.58 0L106.73-2.48L103.27-2.48L102.38 0L101.20 0L104.44-8.58L105.75-8.58L108.84 0L107.58 0ZM105-7.31L103.64-3.52L106.31-3.52L105.05-7.31L105-7.31ZM111.28-8.58L115.59-1.64L115.59-8.58L116.72-8.58L116.72 0L115.41 0L111.05-6.94L111-6.94L111 0L109.88 0L109.88-8.58L111.28-8.58Z" transform="translate(-0.234375, 8.8125)"></path></g></g></g></g></g><defs v-gra="od"></defs></svg>